<svg id="visual" viewBox="0 0 900 600" width="900" height="600" xmlns="http://www.w3.org/2000/svg" xmlns:xlink="http://www.w3.org/1999/xlink" version="1.1"><rect x="0" y="0" width="900" height="600" fill="#fff"></rect><defs><linearGradient id="grad1_0" x1="33.3%" y1="0%" x2="100%" y2="100%"><stop offset="20%" stop-color="#ffffff" stop-opacity="1"></stop><stop offset="80%" stop-color="#ffffff" stop-opacity="1"></stop></linearGradient></defs><defs><linearGradient id="grad2_0" x1="0%" y1="0%" x2="66.7%" y2="100%"><stop offset="20%" stop-color="#ffffff" stop-opacity="1"></stop><stop offset="80%" stop-color="#ffffff" stop-opacity="1"></stop></linearGradient></defs><g transform="translate(900, 0)"><path d="M0 486.7C-64 466.7 -128 446.6 -169.1 408.4C-210.3 370.2 -228.7 313.8 -278.6 278.6C-328.5 243.4 -409.8 229.2 -449.7 186.3C-489.6 143.3 -488.2 71.7 -486.7 0L0 0Z" fill="#5B2BE0"></path></g><g transform="translate(0, 600)"><path d="M0 -486.7C65.9 -482.3 131.8 -477.8 186.3 -449.7C240.7 -421.6 283.7 -370 321 -321C358.3 -272 390 -225.7 416.7 -172.6C443.3 -119.5 465 -59.8 486.7 0L0 0Z" fill="#5B2BE0"></path></g></svg>