<svg id="visual" viewBox="0 0 900 600" width="900" height="600" xmlns="http://www.w3.org/2000/svg" xmlns:xlink="http://www.w3.org/1999/xlink" version="1.1"><rect x="0" y="0" width="900" height="600" fill="#4529A7"></rect><path d="M0 453L21.5 464C43 475 86 497 128.8 503.8C171.7 510.7 214.3 502.3 257.2 483.7C300 465 343 436 385.8 416.2C428.7 396.3 471.3 385.7 514.2 391.8C557 398 600 421 642.8 426.2C685.7 431.3 728.3 418.7 771.2 412.7C814 406.7 857 407.3 878.5 407.7L900 408L900 601L878.5 601C857 601 814 601 771.2 601C728.3 601 685.7 601 642.8 601C600 601 557 601 514.2 601C471.3 601 428.7 601 385.8 601C343 601 300 601 257.2 601C214.3 601 171.7 601 128.8 601C86 601 43 601 21.5 601L0 601Z" fill="#fff" stroke-linecap="round" stroke-linejoin="miter"></path></svg>